<?xml version="1.0" standalone="no"?>
<!DOCTYPE svg PUBLIC "-//W3C//DTD SVG 20010904//EN"
 "http://www.w3.org/TR/2001/REC-SVG-20010904/DTD/svg10.dtd">
<svg version="1.0" xmlns="http://www.w3.org/2000/svg"
 width="700.000000pt" height="700.000000pt" viewBox="0 0 700.000000 700.000000"
 preserveAspectRatio="xMidYMid meet">
<metadata>
Created by potrace 1.14, written by Peter Selinger 2001-2017
</metadata>
<g transform="translate(0.000000,700.000000) scale(0.100000,-0.100000)"
fill="#000000" stroke="none">
<path d="M1110 5829 c-143 -16 -247 -66 -350 -169 -82 -82 -127 -157 -156
-260 -18 -62 -19 -144 -18 -1910 l0 -1845 26 -72 c37 -105 72 -159 152 -238
78 -77 157 -122 266 -151 61 -16 208 -18 2415 -18 1293 0 2377 3 2410 6 120
12 246 72 334 159 65 65 78 82 116 158 36 72 51 138 124 556 23 127 45 255 51
285 6 30 12 66 14 80 3 14 9 50 15 80 5 30 12 69 15 85 3 17 16 93 30 170 14
77 28 151 30 165 3 14 14 79 26 145 25 145 33 190 46 260 44 233 73 408 78
479 2 27 -7 103 -18 155 -16 74 -93 200 -160 264 -60 58 -184 129 -241 140
-11 2 -31 7 -45 11 -14 3 -52 8 -85 9 l-59 3 -2 185 c-1 190 -12 258 -52 345
-66 144 -201 265 -351 317 l-66 22 -1224 3 -1224 2 -291 292 -291 291 -730 1
c-401 1 -755 -2 -785 -5z"/>
</g>
</svg>
